<svg xmlns="http://www.w3.org/2000/svg" xmlns:xlink="http://www.w3.org/1999/xlink" width="400" zoomAndPan="magnify" viewBox="0 0 300 299.999988" height="400" preserveAspectRatio="xMidYMid meet" version="1.2"><defs><clipPath id="eac6145577"><path d="M 73.695312 143.21875 L 227.882812 143.21875 L 227.882812 161.175781 L 73.695312 161.175781 Z M 73.695312 143.21875 "/></clipPath></defs><g id="329bf19c71"><rect x="0" width="300" y="0" height="299.999988" style="fill:#ffffff;fill-opacity:1;stroke:none;"/><rect x="0" width="300" y="0" height="299.999988" style="fill:#e6e6e6;fill-opacity:1;stroke:none;"/><g style="fill:#000000;fill-opacity:1;"><g transform="translate(63.526754, 178.625526)"><path style="stroke:none" d="M -1.359375 10.15625 C 1.578125 10.15625 3.910156 9.800781 5.640625 9.09375 C 7.378906 8.394531 8.664062 7.332031 9.5 5.90625 C 10.332031 4.488281 10.863281 2.695312 11.09375 0.53125 C 11.320312 -1.625 11.4375 -4.171875 11.4375 -7.109375 L 11.359375 -20.640625 L 11.359375 -50.546875 C 11.359375 -52.796875 10.648438 -54.550781 9.234375 -55.8125 C 7.816406 -57.070312 5.867188 -57.703125 3.390625 -57.703125 L 3.390625 -58.3125 L 33.359375 -58.3125 L 33.359375 -57.703125 C 30.878906 -57.703125 28.925781 -57.070312 27.5 -55.8125 C 26.082031 -54.550781 25.375 -52.796875 25.375 -50.546875 L 25.375 -11.5 C 25.375 -8.164062 24.671875 -5.117188 23.265625 -2.359375 C 21.867188 0.390625 19.941406 2.753906 17.484375 4.734375 C 15.023438 6.722656 12.179688 8.253906 8.953125 9.328125 C 5.734375 10.410156 2.296875 10.953125 -1.359375 10.953125 Z M -1.359375 10.15625 "/></g></g><g style="fill:#000000;fill-opacity:1;"><g transform="translate(120.083862, 178.625526)"><path style="stroke:none" d="M 3.390625 -0.609375 L 4.265625 -0.609375 C 4.804688 -0.648438 5.46875 -0.757812 6.25 -0.9375 C 7.039062 -1.125 7.832031 -1.453125 8.625 -1.921875 C 9.414062 -2.398438 10.066406 -3.113281 10.578125 -4.0625 C 11.097656 -5.007812 11.359375 -6.25 11.359375 -7.78125 L 11.359375 -50.546875 C 11.359375 -52.117188 11.085938 -53.367188 10.546875 -54.296875 C 10.015625 -55.222656 9.351562 -55.929688 8.5625 -56.421875 C 7.769531 -56.921875 6.96875 -57.257812 6.15625 -57.4375 C 5.34375 -57.613281 4.6875 -57.703125 4.1875 -57.703125 L 3.390625 -57.703125 L 3.390625 -58.3125 L 32.671875 -58.3125 C 35.429688 -58.3125 38.070312 -58.109375 40.59375 -57.703125 C 43.113281 -57.304688 45.378906 -56.597656 47.390625 -55.578125 C 49.398438 -54.566406 50.988281 -53.171875 52.15625 -51.390625 C 53.332031 -49.609375 53.921875 -47.363281 53.921875 -44.65625 C 53.921875 -41.675781 53.1875 -39.269531 51.71875 -37.4375 C 50.257812 -35.613281 48.351562 -34.21875 46 -33.25 C 43.65625 -32.28125 41.109375 -31.570312 38.359375 -31.125 C 41.566406 -30.9375 44.53125 -30.289062 47.25 -29.1875 C 49.976562 -28.082031 52.1875 -26.4375 53.875 -24.25 C 55.570312 -22.0625 56.421875 -19.234375 56.421875 -15.765625 C 56.421875 -12.921875 55.84375 -10.503906 54.6875 -8.515625 C 53.539062 -6.535156 51.972656 -4.914062 49.984375 -3.65625 C 48.003906 -2.394531 45.738281 -1.46875 43.1875 -0.875 C 40.644531 -0.289062 37.953125 0 35.109375 0 L 3.390625 0 Z M 32.671875 -31.25 C 35.109375 -31.25 36.957031 -32.457031 38.21875 -34.875 C 39.488281 -37.289062 40.125 -40.550781 40.125 -44.65625 C 40.125 -48.757812 39.488281 -51.957031 38.21875 -54.25 C 36.957031 -56.550781 35.109375 -57.703125 32.671875 -57.703125 L 25.375 -57.703125 L 25.375 -31.25 Z M 35.109375 -0.609375 C 36.734375 -0.609375 38.097656 -1.296875 39.203125 -2.671875 C 40.304688 -4.046875 41.148438 -5.882812 41.734375 -8.1875 C 42.328125 -10.488281 42.625 -13.015625 42.625 -15.765625 C 42.625 -18.515625 42.328125 -21.003906 41.734375 -23.234375 C 41.148438 -25.472656 40.304688 -27.253906 39.203125 -28.578125 C 38.097656 -29.910156 36.734375 -30.578125 35.109375 -30.578125 L 25.375 -30.578125 L 25.375 -7.640625 C 25.375 -6.109375 25.628906 -4.867188 26.140625 -3.921875 C 26.660156 -2.972656 27.304688 -2.257812 28.078125 -1.78125 C 28.847656 -1.3125 29.601562 -1 30.34375 -0.84375 C 31.082031 -0.6875 31.679688 -0.609375 32.140625 -0.609375 Z M 35.109375 -0.609375 "/></g></g><g style="fill:#000000;fill-opacity:1;"><g transform="translate(199.70947, 178.625526)"><path style="stroke:none" d="M 3.390625 -0.609375 C 5.867188 -0.609375 7.816406 -1.25 9.234375 -2.53125 C 10.648438 -3.820312 11.359375 -5.570312 11.359375 -7.78125 L 11.359375 -50.546875 C 11.359375 -52.796875 10.648438 -54.550781 9.234375 -55.8125 C 7.816406 -57.070312 5.867188 -57.703125 3.390625 -57.703125 L 3.390625 -58.3125 L 33.359375 -58.3125 L 33.359375 -57.703125 C 30.878906 -57.703125 28.925781 -57.070312 27.5 -55.8125 C 26.082031 -54.550781 25.375 -52.796875 25.375 -50.546875 L 25.375 -7.78125 C 25.375 -5.570312 26.082031 -3.820312 27.5 -2.53125 C 28.925781 -1.25 30.878906 -0.609375 33.359375 -0.609375 L 33.359375 0 L 3.390625 0 Z M 3.390625 -0.609375 "/></g></g><g clip-rule="nonzero" clip-path="url(#eac6145577)"><path style=" stroke:none;fill-rule:nonzero;fill:#e6e6e6;fill-opacity:1;" d="M 73.695312 143.21875 L 227.878906 143.21875 L 227.878906 161.175781 L 73.695312 161.175781 Z M 73.695312 143.21875 "/></g><g style="fill:#000000;fill-opacity:1;"><g transform="translate(63.963876, 155.948922)"><path style="stroke:none" d="M 4.046875 0.078125 C 3.359375 0.078125 2.695312 -0.03125 2.0625 -0.25 C 1.4375 -0.46875 0.957031 -0.757812 0.625 -1.125 L 1 -1.875 C 1.332031 -1.539062 1.773438 -1.269531 2.328125 -1.0625 C 2.878906 -0.851562 3.453125 -0.75 4.046875 -0.75 C 4.867188 -0.75 5.484375 -0.898438 5.890625 -1.203125 C 6.304688 -1.503906 6.515625 -1.898438 6.515625 -2.390625 C 6.515625 -2.753906 6.398438 -3.046875 6.171875 -3.265625 C 5.953125 -3.484375 5.679688 -3.648438 5.359375 -3.765625 C 5.035156 -3.890625 4.582031 -4.019531 4 -4.15625 C 3.3125 -4.332031 2.757812 -4.5 2.34375 -4.65625 C 1.925781 -4.820312 1.570312 -5.070312 1.28125 -5.40625 C 0.988281 -5.75 0.84375 -6.203125 0.84375 -6.765625 C 0.84375 -7.234375 0.960938 -7.65625 1.203125 -8.03125 C 1.453125 -8.414062 1.832031 -8.722656 2.34375 -8.953125 C 2.851562 -9.179688 3.484375 -9.296875 4.234375 -9.296875 C 4.765625 -9.296875 5.28125 -9.222656 5.78125 -9.078125 C 6.289062 -8.929688 6.726562 -8.734375 7.09375 -8.484375 L 6.765625 -7.703125 C 6.378906 -7.960938 5.96875 -8.15625 5.53125 -8.28125 C 5.09375 -8.40625 4.660156 -8.46875 4.234375 -8.46875 C 3.429688 -8.46875 2.820312 -8.3125 2.40625 -8 C 2 -7.6875 1.796875 -7.285156 1.796875 -6.796875 C 1.796875 -6.429688 1.90625 -6.132812 2.125 -5.90625 C 2.351562 -5.6875 2.632812 -5.515625 2.96875 -5.390625 C 3.3125 -5.273438 3.769531 -5.144531 4.34375 -5 C 5.019531 -4.832031 5.566406 -4.664062 5.984375 -4.5 C 6.398438 -4.34375 6.753906 -4.097656 7.046875 -3.765625 C 7.335938 -3.441406 7.484375 -3 7.484375 -2.4375 C 7.484375 -1.96875 7.359375 -1.539062 7.109375 -1.15625 C 6.859375 -0.78125 6.472656 -0.476562 5.953125 -0.25 C 5.429688 -0.03125 4.796875 0.078125 4.046875 0.078125 Z M 4.046875 0.078125 "/></g></g><g style="fill:#000000;fill-opacity:1;"><g transform="translate(76.270462, 155.948922)"><path style="stroke:none" d=""/></g></g><g style="fill:#000000;fill-opacity:1;"><g transform="translate(83.927406, 155.948922)"><path style="stroke:none" d="M 5.53125 0.078125 C 4.613281 0.078125 3.785156 -0.125 3.046875 -0.53125 C 2.304688 -0.9375 1.726562 -1.492188 1.3125 -2.203125 C 0.894531 -2.921875 0.6875 -3.722656 0.6875 -4.609375 C 0.6875 -5.492188 0.894531 -6.289062 1.3125 -7 C 1.726562 -7.71875 2.304688 -8.28125 3.046875 -8.6875 C 3.785156 -9.09375 4.613281 -9.296875 5.53125 -9.296875 C 6.445312 -9.296875 7.269531 -9.09375 8 -8.6875 C 8.738281 -8.289062 9.316406 -7.734375 9.734375 -7.015625 C 10.148438 -6.296875 10.359375 -5.492188 10.359375 -4.609375 C 10.359375 -3.722656 10.148438 -2.921875 9.734375 -2.203125 C 9.316406 -1.484375 8.738281 -0.921875 8 -0.515625 C 7.269531 -0.117188 6.445312 0.078125 5.53125 0.078125 Z M 5.53125 -0.796875 C 6.257812 -0.796875 6.914062 -0.957031 7.5 -1.28125 C 8.09375 -1.613281 8.554688 -2.070312 8.890625 -2.65625 C 9.222656 -3.238281 9.390625 -3.890625 9.390625 -4.609375 C 9.390625 -5.328125 9.222656 -5.976562 8.890625 -6.5625 C 8.554688 -7.144531 8.09375 -7.601562 7.5 -7.9375 C 6.914062 -8.269531 6.257812 -8.4375 5.53125 -8.4375 C 4.800781 -8.4375 4.140625 -8.269531 3.546875 -7.9375 C 2.953125 -7.601562 2.484375 -7.144531 2.140625 -6.5625 C 1.804688 -5.976562 1.640625 -5.328125 1.640625 -4.609375 C 1.640625 -3.890625 1.804688 -3.238281 2.140625 -2.65625 C 2.484375 -2.070312 2.953125 -1.613281 3.546875 -1.28125 C 4.140625 -0.957031 4.800781 -0.796875 5.53125 -0.796875 Z M 5.53125 -0.796875 "/></g></g><g style="fill:#000000;fill-opacity:1;"><g transform="translate(99.184473, 155.948922)"><path style="stroke:none" d=""/></g></g><g style="fill:#000000;fill-opacity:1;"><g transform="translate(106.841417, 155.948922)"><path style="stroke:none" d="M 1.5 -9.21875 L 2.46875 -9.21875 L 2.46875 -0.84375 L 7.640625 -0.84375 L 7.640625 0 L 1.5 0 Z M 1.5 -9.21875 "/></g></g><g style="fill:#000000;fill-opacity:1;"><g transform="translate(118.805538, 155.948922)"><path style="stroke:none" d=""/></g></g><g style="fill:#000000;fill-opacity:1;"><g transform="translate(126.462482, 155.948922)"><path style="stroke:none" d="M 5.21875 0.078125 C 4.019531 0.078125 3.085938 -0.257812 2.421875 -0.9375 C 1.753906 -1.625 1.421875 -2.625 1.421875 -3.9375 L 1.421875 -9.21875 L 2.390625 -9.21875 L 2.390625 -3.984375 C 2.390625 -2.910156 2.628906 -2.109375 3.109375 -1.578125 C 3.597656 -1.054688 4.300781 -0.796875 5.21875 -0.796875 C 6.132812 -0.796875 6.832031 -1.054688 7.3125 -1.578125 C 7.800781 -2.109375 8.046875 -2.910156 8.046875 -3.984375 L 8.046875 -9.21875 L 9 -9.21875 L 9 -3.9375 C 9 -2.625 8.664062 -1.625 8 -0.9375 C 7.332031 -0.257812 6.40625 0.078125 5.21875 0.078125 Z M 5.21875 0.078125 "/></g></g><g style="fill:#000000;fill-opacity:1;"><g transform="translate(141.10047, 155.948922)"><path style="stroke:none" d=""/></g></g><g style="fill:#000000;fill-opacity:1;"><g transform="translate(148.757414, 155.948922)"><path style="stroke:none" d="M 3.296875 -8.375 L 0.046875 -8.375 L 0.046875 -9.21875 L 7.515625 -9.21875 L 7.515625 -8.375 L 4.265625 -8.375 L 4.265625 0 L 3.296875 0 Z M 3.296875 -8.375 "/></g></g><g style="fill:#000000;fill-opacity:1;"><g transform="translate(160.523953, 155.948922)"><path style="stroke:none" d=""/></g></g><g style="fill:#000000;fill-opacity:1;"><g transform="translate(168.180897, 155.948922)"><path style="stroke:none" d="M 1.5 -9.21875 L 2.46875 -9.21875 L 2.46875 0 L 1.5 0 Z M 1.5 -9.21875 "/></g></g><g style="fill:#000000;fill-opacity:1;"><g transform="translate(176.364715, 155.948922)"><path style="stroke:none" d=""/></g></g><g style="fill:#000000;fill-opacity:1;"><g transform="translate(184.021659, 155.948922)"><path style="stroke:none" d="M 5.53125 0.078125 C 4.613281 0.078125 3.785156 -0.125 3.046875 -0.53125 C 2.304688 -0.9375 1.726562 -1.492188 1.3125 -2.203125 C 0.894531 -2.921875 0.6875 -3.722656 0.6875 -4.609375 C 0.6875 -5.492188 0.894531 -6.289062 1.3125 -7 C 1.726562 -7.71875 2.304688 -8.28125 3.046875 -8.6875 C 3.785156 -9.09375 4.613281 -9.296875 5.53125 -9.296875 C 6.445312 -9.296875 7.269531 -9.09375 8 -8.6875 C 8.738281 -8.289062 9.316406 -7.734375 9.734375 -7.015625 C 10.148438 -6.296875 10.359375 -5.492188 10.359375 -4.609375 C 10.359375 -3.722656 10.148438 -2.921875 9.734375 -2.203125 C 9.316406 -1.484375 8.738281 -0.921875 8 -0.515625 C 7.269531 -0.117188 6.445312 0.078125 5.53125 0.078125 Z M 5.53125 -0.796875 C 6.257812 -0.796875 6.914062 -0.957031 7.5 -1.28125 C 8.09375 -1.613281 8.554688 -2.070312 8.890625 -2.65625 C 9.222656 -3.238281 9.390625 -3.890625 9.390625 -4.609375 C 9.390625 -5.328125 9.222656 -5.976562 8.890625 -6.5625 C 8.554688 -7.144531 8.09375 -7.601562 7.5 -7.9375 C 6.914062 -8.269531 6.257812 -8.4375 5.53125 -8.4375 C 4.800781 -8.4375 4.140625 -8.269531 3.546875 -7.9375 C 2.953125 -7.601562 2.484375 -7.144531 2.140625 -6.5625 C 1.804688 -5.976562 1.640625 -5.328125 1.640625 -4.609375 C 1.640625 -3.890625 1.804688 -3.238281 2.140625 -2.65625 C 2.484375 -2.070312 2.953125 -1.613281 3.546875 -1.28125 C 4.140625 -0.957031 4.800781 -0.796875 5.53125 -0.796875 Z M 5.53125 -0.796875 "/></g></g><g style="fill:#000000;fill-opacity:1;"><g transform="translate(199.278726, 155.948922)"><path style="stroke:none" d=""/></g></g><g style="fill:#000000;fill-opacity:1;"><g transform="translate(206.93567, 155.948922)"><path style="stroke:none" d="M 9.203125 -9.21875 L 9.203125 0 L 8.40625 0 L 2.46875 -7.484375 L 2.46875 0 L 1.5 0 L 1.5 -9.21875 L 2.3125 -9.21875 L 8.25 -1.734375 L 8.25 -9.21875 Z M 9.203125 -9.21875 "/></g></g><g style="fill:#000000;fill-opacity:1;"><g transform="translate(221.850273, 155.948922)"><path style="stroke:none" d=""/></g></g><g style="fill:#000000;fill-opacity:1;"><g transform="translate(229.507216, 155.948922)"><path style="stroke:none" d="M 4.046875 0.078125 C 3.359375 0.078125 2.695312 -0.03125 2.0625 -0.25 C 1.4375 -0.46875 0.957031 -0.757812 0.625 -1.125 L 1 -1.875 C 1.332031 -1.539062 1.773438 -1.269531 2.328125 -1.0625 C 2.878906 -0.851562 3.453125 -0.75 4.046875 -0.75 C 4.867188 -0.75 5.484375 -0.898438 5.890625 -1.203125 C 6.304688 -1.503906 6.515625 -1.898438 6.515625 -2.390625 C 6.515625 -2.753906 6.398438 -3.046875 6.171875 -3.265625 C 5.953125 -3.484375 5.679688 -3.648438 5.359375 -3.765625 C 5.035156 -3.890625 4.582031 -4.019531 4 -4.15625 C 3.3125 -4.332031 2.757812 -4.5 2.34375 -4.65625 C 1.925781 -4.820312 1.570312 -5.070312 1.28125 -5.40625 C 0.988281 -5.75 0.84375 -6.203125 0.84375 -6.765625 C 0.84375 -7.234375 0.960938 -7.65625 1.203125 -8.03125 C 1.453125 -8.414062 1.832031 -8.722656 2.34375 -8.953125 C 2.851562 -9.179688 3.484375 -9.296875 4.234375 -9.296875 C 4.765625 -9.296875 5.28125 -9.222656 5.78125 -9.078125 C 6.289062 -8.929688 6.726562 -8.734375 7.09375 -8.484375 L 6.765625 -7.703125 C 6.378906 -7.960938 5.96875 -8.15625 5.53125 -8.28125 C 5.09375 -8.40625 4.660156 -8.46875 4.234375 -8.46875 C 3.429688 -8.46875 2.820312 -8.3125 2.40625 -8 C 2 -7.6875 1.796875 -7.285156 1.796875 -6.796875 C 1.796875 -6.429688 1.90625 -6.132812 2.125 -5.90625 C 2.351562 -5.6875 2.632812 -5.515625 2.96875 -5.390625 C 3.3125 -5.273438 3.769531 -5.144531 4.34375 -5 C 5.019531 -4.832031 5.566406 -4.664062 5.984375 -4.5 C 6.398438 -4.34375 6.753906 -4.097656 7.046875 -3.765625 C 7.335938 -3.441406 7.484375 -3 7.484375 -2.4375 C 7.484375 -1.96875 7.359375 -1.539062 7.109375 -1.15625 C 6.859375 -0.78125 6.472656 -0.476562 5.953125 -0.25 C 5.429688 -0.03125 4.796875 0.078125 4.046875 0.078125 Z M 4.046875 0.078125 "/></g></g></g></svg>